<?xml version="1.0" encoding="UTF-8"?>
<svg id="Layer_1" data-name="Layer 1" xmlns="http://www.w3.org/2000/svg" viewBox="0 0 1024 401.23">
  <defs>
    <style>
      .cls-1 {
        fill: #98c082;
      }
    </style>
  </defs>
  <g>
    <path class="cls-1" d="m293.9,97.06l443.5-.11c23.21.43,43.77,2.63,61.69,6.74,19.83,4.4,35.55,10.13,47.01,16.88,11.61,6.9,21.01,15.12,28.21,24.82,7.2,9.69,12.05,18.95,14.55,27.91.59,2.2,1.18,4.41,1.62,6.61l133.52-.03c-.44-5.29-.88-10.58-1.62-15.72-1.47-10.72-4.71-22.91-9.7-36.57-5-13.66-11.61-26.14-19.69-37.75-8.23-11.46-19.4-22.91-33.79-34.36-14.4-11.45-31.29-21.14-50.54-29.07-19.39-7.93-43.19-14.24-71.69-19.08C808.47,2.48,776.74,0,741.79,0l-459.37.12c-34.96,0-66.83,2.51-95.62,7.37-28.79,4.85-52.88,11.18-72.12,19.11-19.39,7.94-36.13,17.64-50.67,29.1-14.39,11.46-25.55,22.92-33.78,34.38-8.08,11.61-14.54,24.24-19.38,38.05-4.84,13.81-8.07,26-9.39,36.58-.73,4.99-1.17,10.14-1.47,15.42l133.23-.03c10.56-55.38,64.17-83.01,160.67-83.03Z"/>
    <path class="cls-1" d="m885.94,232.59c-4.55,11.46-12.33,22.92-23.49,34.23-11.16,11.31-28.05,20.28-50.52,26.89-20.86,6.17-45.68,9.41-74.47,10.01l-443.5.11c-32.46,0-60.08-3.36-82.7-10.26-22.77-6.75-39.52-15.85-50.39-27.45-10.73-11.45-18.37-22.91-22.92-34.37-1.47-3.52-2.65-7.2-3.53-10.87l-134.25.03c.3,4.55.74,9.11,1.33,13.51,1.32,10.72,4.56,23.06,9.41,36.87,4.85,13.81,11.32,26.58,19.4,38.19,8.23,11.75,19.54,23.35,34.09,35.1,14.69,11.6,31.44,21.44,50.54,29.51,19.1,8.07,43.19,14.68,71.98,19.66,28.79,4.99,60.67,7.48,95.63,7.47l459.37-.12c34.96,0,66.83-2.51,95.47-7.52,28.64-5,52.44-11.62,71.53-19.7,19.09-8.08,35.98-17.93,50.52-29.54,14.69-11.75,25.85-23.36,33.77-35.11,7.93-11.61,14.54-24.39,19.53-38.2,4.99-13.81,8.22-26.15,9.68-36.87.59-4.41,1.03-8.96,1.32-13.51l-134.11.03c-.88,4.11-2.2,8.08-3.67,11.9Z"/>
  </g>
  <g>
    <path class="cls-1" d="m405.51,245.06l-14.52-60.28-14.87,60.28h-26.59l27.47-88.9h27.82l27.12,88.9h-26.42Z"/>
    <path class="cls-1" d="m648.05,245.06l-14.52-60.28-14.87,60.28h-26.59l27.47-88.9h27.82l27.12,88.9h-26.42Z"/>
  </g>
</svg>