<?xml version="1.0" encoding="UTF-8"?>
<svg id="Layer_1" data-name="Layer 1" xmlns="http://www.w3.org/2000/svg" viewBox="0 0 1024 128">
  <defs>
    <style>
      .cls-1 {
        fill: #98c082;
      }

      .cls-2 {
        fill: #1e1e2f;
      }
    </style>
  </defs>
  <path class="cls-1" d="m89.89,128c-14.01,0-26.46-1.38-37.33-4.16-10.87-2.77-19.54-6.29-26.01-10.56-6.47-4.26-11.75-9.25-15.86-14.96-4.11-5.71-6.92-11.19-8.43-16.45-1.51-5.27-2.26-10.61-2.26-16.04v-4.66c0-5.43.63-10.67,1.9-15.71,1.27-5.05,3.93-10.42,7.98-16.13,4.05-5.7,9.27-10.64,15.68-14.79,6.4-4.16,15.25-7.62,26.55-10.39C63.4,1.39,76.48,0,91.34,0h7.79C113.51,0,126.2,1.11,137.19,3.33c10.99,2.22,19.6,4.96,25.82,8.23,6.22,3.27,11.33,7.15,15.32,11.63,3.99,4.49,6.64,8.59,7.97,12.3,1.33,3.71,2.05,7.51,2.18,11.39v.17h-44.95c-4.47-11.75-20.48-17.62-48.03-17.62-34.19,0-51.29,11.14-51.29,33.41v1.83c0,9.09,4.2,16.9,12.6,23.44,8.4,6.54,21.17,9.81,38.33,9.81,7.49,0,14.38-.5,20.66-1.5,6.28-.99,11.3-2.22,15.04-3.66,3.75-1.44,6.92-3.02,9.52-4.74,2.6-1.72,4.41-3.24,5.44-4.57,1.03-1.33,1.54-2.38,1.54-3.16v-.33h-52.92v-23.44h94.97v69.32h-30.4s-.21-11.08-.41-19.28c-13.53,14.3-35.16,21.44-64.88,21.44h-3.81Zm282.39-36.18v34.13h-39.12v-22.14c0-7.66-1.95-13.21-5.85-16.65-3.9-3.44-10.59-5.16-20.06-5.16h-50.83v43.95h-38.96V2.08h100.32c36,0,54,10.71,54,32.13v2c0,13.1-7.69,22.14-23.07,27.14,7.02,2,12.71,5.36,17.06,10.07,4.35,4.72,6.52,10.85,6.52,18.4Zm-41.13-49.62c0-3.55-1.28-6.44-3.84-8.65-2.56-2.22-6.52-3.33-11.87-3.33h-59.02v24.31h59.02c5.35,0,9.3-1.11,11.87-3.33,2.56-2.22,3.84-5.16,3.84-8.83v-.17Zm107.97,83.64h-42.23V2.16h42.23v123.68ZM558.38,1.59c12.62,0,24.04.78,34.23,2.34,10.2,1.56,18.69,3.81,25.49,6.77,6.8,2.95,12.62,6.24,17.48,9.85,4.86,3.62,8.56,7.71,11.11,12.28,2.55,4.56,4.4,9.05,5.55,13.44,1.15,4.4,1.73,9.1,1.73,14.12v5.01c0,5.9-.73,11.44-2.18,16.61-1.46,5.18-4.34,10.55-8.65,16.12-4.31,5.57-9.86,10.3-16.66,14.19-6.8,3.9-16.02,7.13-27.68,9.69-11.65,2.56-25.07,3.84-40.24,3.84h-89.95V1.59h89.76Zm-47.34,94.36h44.06c36.29,0,54.44-10.69,54.44-32.06v-1c0-21.27-18.15-31.9-54.44-31.9h-44.06v64.96Z"/>
  <path class="cls-2" d="m798.93,100.22h136.72c7.15.14,13.49.82,19.02,2.08,6.11,1.36,10.96,3.12,14.49,5.21,3.58,2.13,6.48,4.66,8.69,7.65,2.22,2.99,3.71,5.84,4.48,8.6.18.68.36,1.36.5,2.04h41.16c-.14-1.63-.27-3.26-.5-4.85-.45-3.31-1.45-7.06-2.99-11.28-1.54-4.21-3.58-8.06-6.07-11.64-2.54-3.53-5.98-7.06-10.41-10.6-4.44-3.53-9.64-6.52-15.58-8.97-5.98-2.45-13.31-4.39-22.1-5.89-8.78-1.49-18.57-2.26-29.34-2.26h-141.61c-10.78,0-20.6.77-29.48,2.26-8.88,1.49-16.3,3.44-22.23,5.89-5.98,2.45-11.14,5.43-15.62,8.97-4.44,3.53-7.88,7.06-10.41,10.6-2.49,3.58-4.48,7.47-5.98,11.73-1.49,4.26-2.49,8.01-2.9,11.28-.23,1.54-.36,3.12-.45,4.75h41.07c3.26-17.07,19.79-25.58,49.54-25.58ZM981.44,5.82c-1.4,3.53-3.8,7.06-7.25,10.55-3.44,3.49-8.65,6.25-15.58,8.29-6.43,1.9-14.08,2.9-22.96,3.08h-136.72c-10.01,0-18.52-1.04-25.49-3.17-7.02-2.08-12.18-4.89-15.53-8.47-3.31-3.53-5.66-7.06-7.06-10.6-.45-1.09-.82-2.22-1.09-3.35h-41.39c.09,1.4.23,2.81.41,4.17.41,3.31,1.4,7.11,2.9,11.37,1.49,4.26,3.49,8.2,5.98,11.77,2.54,3.62,6.02,7.2,10.51,10.82,4.53,3.58,9.69,6.61,15.58,9.1,5.89,2.49,13.31,4.53,22.19,6.07,8.88,1.54,18.7,2.31,29.48,2.31h141.61c10.78,0,20.6-.77,29.43-2.31,8.83-1.54,16.17-3.58,22.05-6.07,5.89-2.49,11.09-5.52,15.58-9.1,4.53-3.62,7.97-7.2,10.41-10.82,2.45-3.58,4.48-7.52,6.02-11.77,1.54-4.26,2.54-8.06,2.99-11.37.18-1.36.32-2.76.41-4.17h-41.34c-.27,1.27-.68,2.49-1.13,3.67Z"/>
</svg>