<?xml version="1.0" encoding="UTF-8"?>
<svg version="1.1" xmlns="http://www.w3.org/2000/svg" width="279" height="286">
<path d="M0 0 C2.82421875 1.4296875 2.82421875 1.4296875 5 3 C5 3.66 5 4.32 5 5 C5.66 5 6.32 5 7 5 C8.14888581 8.44665742 8.2039347 11.24351905 8.25 14.875 C8.28867187 16.69644531 8.28867187 16.69644531 8.328125 18.5546875 C7.97856577 22.22505936 7.25944901 24.11536365 5 27 C4.34 27 3.68 27 3 27 C2.77957031 27.55429688 2.55914062 28.10859375 2.33203125 28.6796875 C-2.78016724 37.58480744 -14.04782793 44.5399758 -22.12988281 50.58886719 C-24.25330119 52.19113327 -26.35771332 53.81663443 -28.4609375 55.4453125 C-29.60526245 56.32920654 -29.60526245 56.32920654 -30.77270508 57.23095703 C-32.27144058 58.38884566 -33.76873309 59.54860506 -35.2644043 60.71044922 C-35.95187744 61.23912598 -36.63935059 61.76780273 -37.34765625 62.3125 C-37.95617432 62.78300781 -38.56469238 63.25351563 -39.19165039 63.73828125 C-41 65 -41 65 -43.16577148 66.04296875 C-45.17620162 66.86398237 -45.17620162 66.86398237 -46 69 C-47.46875 69.90234375 -47.46875 69.90234375 -49.5 70.9375 C-53.51312071 73.07485364 -57.24198847 75.48203062 -60.9987793 78.03027344 C-76.49154118 88.43366736 -91.26535714 92.86879592 -110.03369141 89.65136719 C-114.88577287 88.4990134 -119.62216969 86.87932938 -124.37719727 85.38525391 C-138.97809396 80.8435332 -153.68586384 77.56792475 -168.68017578 74.61474609 C-169.48322647 74.4541571 -170.28627716 74.29356812 -171.11366272 74.12811279 C-172.63085138 73.8256517 -174.14940687 73.52994411 -175.66941833 73.24200439 C-180.77635558 72.22364442 -180.77635558 72.22364442 -183 70 C-182.96712417 67.27130593 -182.43602229 64.7033382 -182 62 C-178.07295707 60.52127554 -174.55544482 61.43603109 -170.5859375 62.2578125 C-169.86322662 62.40097397 -169.14051575 62.54413544 -168.39590454 62.69163513 C-166.05346307 63.15945522 -163.71418124 63.64116002 -161.375 64.125 C-160.57900391 64.2871701 -159.78300781 64.44934021 -158.96289062 64.61642456 C-145.76732401 67.30744142 -132.87056942 70.42903163 -120.0625 74.60546875 C-103.87735714 79.87562861 -92.67444984 81.82884854 -76.8359375 74.0390625 C-70.24454015 70.62926287 -64.02207985 66.55405863 -58.3515625 61.76171875 C-56 60 -56 60 -53 60 C-53 59.34 -53 58.68 -53 58 C-50.9453125 56.5546875 -50.9453125 56.5546875 -48.125 54.875 C-43.35764475 51.92580702 -39.02001787 48.73934957 -34.6875 45.19140625 C-31.53578783 42.62147816 -28.3400505 40.11492907 -25.125 37.625 C-24.57730957 37.19598389 -24.02961914 36.76696777 -23.46533203 36.32495117 C-20.75501113 34.22970001 -18.14294823 32.38168256 -15 31 C-15 30.34 -15 29.68 -15 29 C-13.35546875 27.4140625 -13.35546875 27.4140625 -11.1875 25.625 C-8.93749143 23.76433718 -7.09649715 22.13127297 -5.36328125 19.7734375 C-4.68845703 18.89558594 -4.68845703 18.89558594 -4 18 C-3.34 18 -2.68 18 -2 18 C-2 16.02 -2 14.04 -2 12 C-15.63341235 10.18221169 -31.38649137 25.36643802 -42 33 C-42.66 32.67 -43.32 32.34 -44 32 C-44.4140625 29.49609375 -44.4140625 29.49609375 -44.625 26.4375 C-44.73714844 24.91962891 -44.73714844 24.91962891 -44.8515625 23.37109375 C-44.90054688 22.58863281 -44.94953125 21.80617187 -45 21 C-40.78062603 18.13107463 -36.53764871 15.30205563 -32.27197266 12.50244141 C-30.74678581 11.49384482 -29.22825874 10.47511034 -27.71630859 9.44677734 C-9.83047235 -2.69370424 -9.83047235 -2.69370424 0 0 Z " fill="#C6C6C6" transform="translate(263,188)"/>
<path d="M0 0 C2.38564077 0.57584432 4.66682784 1.22227595 7 2 C7 2.66 7 3.32 7 4 C7.99 4 8.98 4 10 4 C9.43392743 8.16088181 8.48180271 11.64010294 6.78515625 15.4765625 C6.34623047 16.476875 5.90730469 17.4771875 5.45507812 18.5078125 C4.76575195 20.05082031 4.76575195 20.05082031 4.0625 21.625 C3.60681641 22.66140625 3.15113281 23.6978125 2.68164062 24.765625 C0.86382948 28.88564205 -0.95484428 32.98693049 -3 37 C-3.66 37 -4.32 37 -5 37 C-5.185625 37.66 -5.37125 38.32 -5.5625 39 C-12.76370343 54.02859846 -29.24148035 61.38924428 -43.5 68.125 C-44.75420368 68.72463871 -46.00811118 69.32489731 -47.26171875 69.92578125 C-49.69586211 71.09038229 -52.13464572 72.24292062 -54.57714844 73.39013672 C-56.76439865 74.41886196 -58.94547265 75.46089201 -61.11816406 76.52001953 C-68.28881907 79.94898522 -74.01798603 81.31629518 -82 80 C-85.87156623 78.37021697 -88.15035136 75.9318727 -90.9375 72.875 C-92.94695925 67.43763969 -92.98782952 61.44357828 -90.8125 56.0625 C-86.62713245 51.29984038 -83.09169239 49.64007103 -77 48 C-76.67 47.34 -76.34 46.68 -76 46 C-73.80454467 45.18950736 -71.58049318 44.59563945 -69.32421875 43.9765625 C-64.42623119 41.91858453 -62.28991379 38.0668193 -59.9375 33.5 C-58.17380076 30.09423595 -56.3888408 27.00554451 -54 24 C-56.97716147 22.27410929 -59.53975852 21.17731838 -63 21 C-66.83795214 23.1498902 -69.886102 25.91210533 -73 29 C-72.34 31.97 -71.68 34.94 -71 38 C-78.625 42 -78.625 42 -82 42 C-82.27263672 41.09507813 -82.27263672 41.09507813 -82.55078125 40.171875 C-84.02775451 35.20455233 -84.02775451 35.20455233 -86.75 30.875 C-88 29 -88 29 -88.375 25.625 C-86.19607829 19.88057005 -81.36933804 18.45303563 -76 16 C-72.4602441 14.37786314 -71.65338239 13.51343758 -70 10 C-67.97000215 7.48000267 -66.79989996 6.18944999 -63.625 5.4375 C-60.48190646 6.11102004 -58.99687455 7.64594506 -56.65234375 9.7578125 C-51.82458923 13.38718824 -44.90211117 13.28023925 -39.1015625 13.55859375 C-37 14 -37 14 -35 17 C-34.8125 19.6875 -34.8125 19.6875 -36 23 C-37.26887012 24.15404025 -38.59031101 25.25093412 -39.9375 26.3125 C-45.3126203 30.71735098 -48.26037268 35.99958837 -51.54858398 42.0090332 C-51.94118408 42.722771 -52.33378418 43.43650879 -52.73828125 44.171875 C-53.24935425 45.1323877 -53.24935425 45.1323877 -53.77075195 46.11230469 C-56.47060844 50.25834051 -59.35929888 52.43759361 -63.94921875 54.18359375 C-65.34430664 54.73950195 -65.34430664 54.73950195 -66.76757812 55.30664062 C-68.72308123 56.06398932 -70.68146746 56.81393315 -72.64257812 57.55664062 C-73.56876953 57.92853516 -74.49496094 58.30042969 -75.44921875 58.68359375 C-76.29830811 59.00900146 -77.14739746 59.33440918 -78.0222168 59.66967773 C-80.22446636 60.87116442 -80.22446636 60.87116442 -80.90942383 63.45727539 C-81.25661648 66.24770821 -81.25661648 66.24770821 -79 69 C-71.74932538 70.41427994 -65.79089429 66.34034597 -59.5 63.125 C-46.15277828 56.39675139 -46.15277828 56.39675139 -40 55 C-40 54.34 -40 53.68 -40 53 C-38.06374902 52.01836578 -36.12595461 51.03977546 -34.1875 50.0625 C-33.10855469 49.51722656 -32.02960938 48.97195312 -30.91796875 48.41015625 C-28 47 -28 47 -25 46 C-25 45.34 -25 44.68 -25 44 C-24.13375 43.319375 -23.2675 42.63875 -22.375 41.9375 C-14.06608914 35.18529375 -10.2511809 24.52636887 -6 15 C-5.58363281 14.09121094 -5.16726562 13.18242188 -4.73828125 12.24609375 C-2.90787445 8.22464239 -1.30194264 4.23131357 0 0 Z " fill="#CFCFCF" transform="translate(233,67)"/>
<path d="M0 0 C1.28583984 -0.02126953 1.28583984 -0.02126953 2.59765625 -0.04296875 C4.9375 0.1875 4.9375 0.1875 7.9375 2.1875 C9.96669843 1.93026031 9.96669843 1.93026031 11.9375 1.1875 C16.74437869 -0.4147929 21.6036446 -0.25704389 26.5625 0.6875 C30.56061131 3.21262293 33.49268302 6.11867165 35.9375 10.1875 C36.91498228 14.61954987 36.84997888 18.92178775 36.76171875 23.4453125 C36.76130081 24.70713348 36.76088287 25.96895447 36.76045227 27.26901245 C36.75209169 29.92829339 36.73050297 32.58321796 36.68530273 35.24169922 C36.62851636 38.635832 36.62045789 42.02789556 36.62871075 45.42242622 C36.63219122 48.68023628 36.60251062 51.93764617 36.57421875 55.1953125 C36.57290451 56.40792755 36.57159027 57.6205426 36.57023621 58.86990356 C36.44527163 65.23217254 36.29466973 69.38784102 31.9375 74.1875 C27.56548127 78.02957706 23.9541217 78.30647645 18.25 78.25 C17.07050781 78.24097656 15.89101563 78.23195313 14.67578125 78.22265625 C13.32033203 78.20525391 13.32033203 78.20525391 11.9375 78.1875 C11.9375 77.5275 11.9375 76.8675 11.9375 76.1875 C10.2875 76.1875 8.6375 76.1875 6.9375 76.1875 C6.9375 76.8475 6.9375 77.5075 6.9375 78.1875 C-7.92661606 79.22052737 -7.92661606 79.22052737 -12.375 75.4375 C-16.17708323 71.48572846 -17.31163379 67.95243147 -17.35302734 62.50439453 C-17.36578705 61.36285919 -17.37854675 60.22132385 -17.39169312 59.04519653 C-17.39391876 57.8159848 -17.39614441 56.58677307 -17.3984375 55.3203125 C-17.4050943 54.05283173 -17.4117511 52.78535095 -17.41860962 51.47946167 C-17.42873669 48.79785114 -17.43429174 46.11664603 -17.43310547 43.43505859 C-17.4329024 40.00963739 -17.46019594 36.58504696 -17.49464989 33.15982246 C-17.5223215 29.88001737 -17.52106956 26.60021845 -17.5234375 23.3203125 C-17.53780853 22.09514923 -17.55217957 20.86998596 -17.56698608 19.60769653 C-17.53257864 13.18927192 -17.48162904 9.02043987 -13.0625 4.1875 C-9.04062874 0.54267917 -5.31284898 0.04006673 0 0 Z M-6.0625 14.1875 C-6.35481539 16.45177374 -6.35481539 16.45177374 -6.28955078 19.09619141 C-6.28939972 20.11709869 -6.28924866 21.13800598 -6.28909302 22.18984985 C-6.27877045 23.29509003 -6.26844788 24.4003302 -6.2578125 25.5390625 C-6.2549826 26.6682309 -6.25215271 27.79739929 -6.24923706 28.96078491 C-6.23801462 32.57812971 -6.21290622 36.19522966 -6.1875 39.8125 C-6.17747287 42.2604131 -6.16834656 44.70833007 -6.16015625 47.15625 C-6.13806857 53.16675064 -6.10457074 59.17710783 -6.0625 65.1875 C-5.4025 65.1875 -4.7425 65.1875 -4.0625 65.1875 C-3.7325 66.1775 -3.4025 67.1675 -3.0625 68.1875 C-0.12158413 68.00334568 -0.12158413 68.00334568 2.9375 67.1875 C4.91032831 64.26611798 5.18966944 61.84760605 5.19628906 58.37475586 C5.20574554 56.94823952 5.20574554 56.94823952 5.21539307 55.49290466 C5.2113446 54.47301956 5.20729614 53.45313446 5.203125 52.40234375 C5.20599518 50.82339073 5.20599518 50.82339073 5.20892334 49.21253967 C5.21028336 46.98926555 5.2065997 44.76598344 5.19824219 42.54272461 C5.18752961 39.13442216 5.19814936 35.72664554 5.2109375 32.31835938 C5.20961608 30.158853 5.20705406 27.99934695 5.203125 25.83984375 C5.20717346 24.81793442 5.21122192 23.79602509 5.21539307 22.7431488 C5.20908875 21.79529007 5.20278442 20.84743134 5.19628906 19.87084961 C5.19469788 19.03686142 5.19310669 18.20287323 5.19146729 17.34361267 C5.06791407 14.89176672 5.06791407 14.89176672 2.9375 12.1875 C-2.09268857 11.55904252 -2.09268857 11.55904252 -6.0625 14.1875 Z M17.8125 12 C15.78807958 13.05605201 15.78807958 13.05605201 14.9375 15.1875 C14.83244745 16.73874862 14.78879831 18.29436909 14.77636719 19.84912109 C14.76675964 20.81707611 14.7571521 21.78503113 14.74725342 22.78231812 C14.74300354 23.83126251 14.73875366 24.88020691 14.734375 25.9609375 C14.72867493 27.03622711 14.72297485 28.11151672 14.71710205 29.21939087 C14.70764397 31.49748752 14.70111487 33.7755979 14.69726562 36.05371094 C14.68755912 39.54125807 14.65654242 43.02821626 14.625 46.515625 C14.61847021 48.72655899 14.61321965 50.93749721 14.609375 53.1484375 C14.5970282 54.19333344 14.5846814 55.23822937 14.57196045 56.31478882 C14.57496155 57.28904816 14.57796265 58.2633075 14.58105469 59.26708984 C14.57740906 60.12265472 14.57376343 60.9782196 14.57000732 61.85971069 C15.01405151 64.67239618 16.08580557 66.06670529 17.9375 68.1875 C21.73297921 67.21973902 21.73297921 67.21973902 24.9375 65.1875 C25.07571086 63.63944852 25.14686235 62.08533653 25.19042969 60.53173828 C25.22005798 59.54045929 25.24968628 58.5491803 25.2802124 57.52786255 C25.30633606 56.44874603 25.33245972 55.36962952 25.359375 54.2578125 C25.38727112 53.15654022 25.41516724 52.05526794 25.44390869 50.92062378 C25.50041884 48.58533264 25.55402238 46.24996967 25.60498047 43.91455078 C25.68699764 40.33442828 25.79051207 36.75532285 25.89453125 33.17578125 C25.94664749 30.91148867 25.99747153 28.6471659 26.046875 26.3828125 C26.08109558 25.30774445 26.11531616 24.23267639 26.15057373 23.12503052 C26.17610321 21.62865555 26.17610321 21.62865555 26.20214844 20.10205078 C26.22355896 19.22348419 26.24496948 18.3449176 26.26702881 17.43972778 C25.86190314 14.6708188 25.15038683 13.84997397 22.9375 12.1875 C20.07007403 10.87936719 20.07007403 10.87936719 17.8125 12 Z " fill="#D1D1D1" transform="translate(39.0625,189.8125)"/>
<path d="M0 0 C3.66560306 1.59296805 6.92614225 2.17302612 10.91015625 2.296875 C11.77366699 2.32821533 12.63717773 2.35955566 13.52685547 2.3918457 C14.43967285 2.42366943 15.35249023 2.45549316 16.29296875 2.48828125 C42.86394074 3.62795076 42.86394074 3.62795076 49.90625 10.50390625 C52.29527541 13.16884727 54.09114901 15.45576412 54.41796875 19.05078125 C54.52109375 20.14390625 54.62421875 21.23703125 54.73046875 22.36328125 C54.22019781 28.38447832 51.63183643 32.30177712 47.23046875 36.23828125 C32.82464088 46.15054813 9.093846 45.17094251 -7.64453125 45.30078125 C-8.47122314 45.31012695 -9.29791504 45.31947266 -10.1496582 45.32910156 C-14.34508647 45.30636448 -17.83889282 45.18239237 -21.58203125 43.05078125 C-22.76280015 39.76149647 -22.69774895 38.39793436 -21.58203125 35.05078125 C-18.87906228 33.69929676 -16.81071429 33.98525571 -13.7890625 34.0390625 C15.76235805 34.9849141 15.76235805 34.9849141 42.41796875 25.05078125 C43.33481505 22.00703392 43.33481505 22.00703392 42.41796875 19.05078125 C36.71493561 14.32541093 29.44806868 14.86068393 22.41796875 14.61328125 C9.93081435 14.06022215 -0.7132792 12.93535161 -12.09765625 7.48828125 C-29.52563216 0.29826428 -47.80361017 4.27794185 -65.39697266 8.64819336 C-66.05624756 8.8107663 -66.71552246 8.97333923 -67.39477539 9.14083862 C-69.20768382 9.59207105 -71.01728887 10.05651543 -72.82666016 10.52172852 C-75.58203125 11.05078125 -75.58203125 11.05078125 -77.58203125 10.05078125 C-78.28515625 8.0546875 -78.28515625 8.0546875 -78.83203125 5.61328125 C-79.0228125 4.81019531 -79.21359375 4.00710937 -79.41015625 3.1796875 C-79.466875 2.47714844 -79.52359375 1.77460938 -79.58203125 1.05078125 C-77.06794146 -1.46330854 -75.19648085 -1.32345309 -71.77099609 -1.67626953 C-68.39511758 -2.09721892 -65.17688682 -3.00722004 -61.89453125 -3.88671875 C-40.15510472 -9.48481089 -20.58570183 -9.37825345 0 0 Z " fill="#C7C7C7" transform="translate(158.58203125,195.94921875)"/>
<path d="M0 0 C1.35373345 0.91185066 2.6959141 1.84103709 4.02734375 2.78515625 C5.50432375 3.7864623 6.98221189 4.78642992 8.4609375 5.78515625 C9.57637939 6.54892578 9.57637939 6.54892578 10.71435547 7.328125 C14.28315385 9.73778015 17.93235119 12.01330645 21.58984375 14.28515625 C22.54709351 14.88541626 22.54709351 14.88541626 23.52368164 15.49780273 C26.55547309 17.39092689 29.60618535 19.22682632 32.71875 20.984375 C37.27622254 23.60039714 41.00051959 25.83134209 43.33984375 30.72265625 C44.45170337 36.28195437 44.46174394 40.69779961 41.96484375 45.84765625 C41.30484375 45.84765625 40.64484375 45.84765625 39.96484375 45.84765625 C39.75859375 46.61078125 39.55234375 47.37390625 39.33984375 48.16015625 C37.46666608 51.82136715 35.81594357 52.49263965 31.96484375 53.84765625 C24.8144762 54.78540937 20.89310889 52.67465094 14.96484375 48.84765625 C13.93488281 48.1928125 12.90492188 47.53796875 11.84375 46.86328125 C9.48569457 45.35811774 7.13766017 43.83838048 4.79296875 42.3125 C1.46962144 40.15819101 -1.89457914 38.07634498 -5.26879883 36.00292969 C-22.22784072 25.55862955 -22.22784072 25.55862955 -26.03515625 19.84765625 C-27.06121399 13.16208006 -26.39087681 7.93694456 -22.3984375 2.4375 C-16.43228329 -4.52016407 -7.61860185 -4.61944935 0 0 Z M-12.03515625 7.84765625 C-13.35515625 10.15765625 -14.67515625 12.46765625 -16.03515625 14.84765625 C-13.00591691 18.15228099 -10.26655339 20.46776886 -6.2734375 22.6015625 C-2.58669425 24.6540426 0.96102783 26.94313629 4.52148438 29.20629883 C7.51288307 31.2199339 7.51288307 31.2199339 10.96484375 31.84765625 C10.96484375 32.50765625 10.96484375 33.16765625 10.96484375 33.84765625 C12.85471691 35.08999147 14.80396905 36.24275369 16.77734375 37.34765625 C19.90958309 39.11398476 22.97220689 40.85256501 25.96484375 42.84765625 C28.8166928 42.66941568 29.7536225 42.07396473 31.71484375 39.97265625 C33.21835381 37.8275867 33.21835381 37.8275867 32.96484375 34.84765625 C30.75977204 32.97815476 30.75977204 32.97815476 27.83984375 31.1875 C26.74744385 30.48036865 25.65504395 29.7732373 24.52954102 29.04467773 C23.34158782 28.29106357 22.15335009 27.53789776 20.96484375 26.78515625 C19.77027389 26.01905548 18.57618245 25.25220819 17.38256836 24.48461914 C15.01289175 22.96367346 12.639089 21.44952691 10.26123047 19.94140625 C7.42654902 18.14091536 4.60177007 16.32644845 1.78125 14.50390625 C0.36395888 13.59659686 -1.05394754 12.69024743 -2.47265625 11.78515625 C-3.10880859 11.37450928 -3.74496094 10.9638623 -4.40039062 10.54077148 C-7.93123319 8.31928207 -7.93123319 8.31928207 -12.03515625 7.84765625 Z " fill="#CCCCCC" transform="translate(219.03515625,11.15234375)"/>
<path d="M0 0 C2.875 2.25 2.875 2.25 5 5 C5 6.32 5 7.64 5 9 C-2.70837993 11.71354184 -10.40429701 14.14665374 -18.31689453 16.19238281 C-32.6438991 19.91121407 -48.61619429 24.77623875 -56.9375 38.125 C-62.84320448 50.55247166 -62.25224 60.42815999 -58 73 C-57.01152829 75.69955034 -55.98703565 78.35225342 -54.83203125 80.984375 C-52.95710525 85.52644925 -53.01488258 87.97000547 -54.4375 92.75 C-54.72496094 93.73484375 -55.01242188 94.7196875 -55.30859375 95.734375 C-55.53675781 96.48203125 -55.76492187 97.2296875 -56 98 C-60.18558093 96.60480636 -61.08107559 93.70775225 -63 90 C-63.89912109 88.33324219 -63.89912109 88.33324219 -64.81640625 86.6328125 C-69.4482506 77.32767553 -72.04237659 68.3782437 -73 58 C-72.67 57.34 -72.34 56.68 -72 56 C-72.495 54.515 -72.495 54.515 -73 53 C-71.31132025 37.34650791 -64.94791371 27.3644443 -52.9140625 17.24609375 C-51 16 -51 16 -48 16 C-48 15.34 -48 14.68 -48 14 C-36.99807992 8.52149286 -25.53945364 5.5210917 -13.62109375 2.7109375 C-2.35837118 -0.34392913 -2.35837118 -0.34392913 0 0 Z " fill="#C2C2C2" transform="translate(190,35)"/>
<path d="M0 0 C2.60623142 0.35219343 4.60789115 0.76473469 6.875 2.125 C8.67626472 5.12710787 7.68453372 7.70179208 7 11 C6.34 11 5.68 11 5 11 C4.9175 11.66 4.835 12.32 4.75 13 C3.75240209 16.99039163 1.92833317 20.38549643 0 24 C-5.35048061 23.62671065 -7.50912907 22.0042343 -11 18 C-8.66666667 13.33333333 -6.33333333 8.66666667 -4 4 C-3.34 4 -2.68 4 -2 4 C-1.34 2.68 -0.68 1.36 0 0 Z " fill="#CDCDCD" transform="translate(263,7)"/>
<path d="M0 0 C0.33 3.63 0.66 7.26 1 11 C-1.27020744 11.19493195 -3.54120289 11.38070418 -5.8125 11.5625 C-7.07707031 11.66691406 -8.34164063 11.77132813 -9.64453125 11.87890625 C-13 12 -13 12 -16 11 C-16 8.03 -16 5.06 -16 2 C-10.42932723 0.40837921 -5.78898419 -0.20674944 0 0 Z " fill="#B2B2B2" transform="translate(16,252)"/>
<path d="M0 0 C0 3.63 0 7.26 0 11 C-10.57142857 11.28571429 -10.57142857 11.28571429 -16 9 C-16 6.03 -16 3.06 -16 0 C-10.3110884 -0.78769545 -5.63643263 -1.07931689 0 0 Z " fill="#AFAFAF" transform="translate(16,199)"/>
<path d="M0 0 C0.5775 0.226875 1.155 0.45375 1.75 0.6875 C0.31770833 1.53385417 -1.11458333 2.38020833 -2.546875 3.2265625 C-5.93923247 6.13652051 -7.9657607 8.7845548 -8.62835693 13.22055054 C-8.77924656 16.34884767 -8.80423555 19.45404196 -8.78125 22.5859375 C-8.7850769 23.73486481 -8.78890381 24.88379211 -8.79284668 26.0675354 C-8.79556365 28.49327472 -8.78821766 30.91904344 -8.77148438 33.34472656 C-8.75011275 37.04298852 -8.7712751 40.73929905 -8.796875 44.4375 C-8.79423092 46.79948343 -8.78910429 49.16146565 -8.78125 51.5234375 C-8.78934692 52.62263519 -8.79744385 53.72183289 -8.80578613 54.8543396 C-8.72800232 61.27715771 -8.06585822 66.37356027 -4.25 71.6875 C-1.68190172 74.1470774 -1.68190172 74.1470774 0.75 75.6875 C-2.87976409 75.6875 -4.12018699 74.42047561 -6.84765625 72.171875 C-10.07210817 68.75880611 -10.50561623 65.59924151 -10.54052734 61.00439453 C-10.55328705 59.86285919 -10.56604675 58.72132385 -10.57919312 57.54519653 C-10.58141876 56.3159848 -10.58364441 55.08677307 -10.5859375 53.8203125 C-10.5925943 52.55283173 -10.5992511 51.28535095 -10.60610962 49.97946167 C-10.61623669 47.29785114 -10.62179174 44.61664603 -10.62060547 41.93505859 C-10.6204024 38.50963739 -10.64769594 35.08504696 -10.68214989 31.65982246 C-10.7098215 28.38001737 -10.70856956 25.10021845 -10.7109375 21.8203125 C-10.72530853 20.59514923 -10.73967957 19.36998596 -10.75448608 18.10769653 C-10.72004499 11.68299427 -10.66272387 7.52988113 -6.25 2.6875 C-3.03996865 -0.42221787 -3.03996865 -0.42221787 0 0 Z " fill="#0C0C0C" transform="translate(32.25,191.3125)"/>
<path d="M0 0 C3.14309354 0.67352004 4.62812545 2.20844506 6.97265625 4.3203125 C12.20331955 8.2525842 20.33476476 8.0726866 26.625 8.5625 C26.625 9.5525 26.625 10.5425 26.625 11.5625 C26.13 11.0675 26.13 11.0675 25.625 10.5625 C23.58574582 10.40290619 21.5431533 10.28523626 19.5 10.1875 C13.58146529 9.77216423 8.31572984 9.35671945 4 4.875 C2.64734794 3.32368686 2.64734794 3.32368686 0.22265625 3.2578125 C-2.41920516 3.29827435 -2.41920516 3.29827435 -3.90234375 5.06640625 C-4.60037109 6.08541016 -4.60037109 6.08541016 -5.3125 7.125 C-10.03706888 13.04125701 -16.60961888 15.55983431 -23.375 18.5625 C-22.375 15.5625 -22.375 15.5625 -20.23046875 14.24609375 C-19.35003906 13.83488281 -18.46960938 13.42367187 -17.5625 13 C-16.68980469 12.58621094 -15.81710938 12.17242187 -14.91796875 11.74609375 C-13.31863487 11.00170333 -11.71733958 10.26149825 -10.11328125 9.52734375 C-7.82829165 8.25904615 -7.47498819 6.8999749 -6.375 4.5625 C-4.34500215 2.04250267 -3.17489996 0.75194999 0 0 Z " fill="#1A1A1A" transform="translate(169.375,72.4375)"/>
<path d="M0 0 C6.91728016 1.20300524 12.20464794 4.91534882 17 10 C19.27424632 15.41785286 19.92036366 20.29643175 18 25.9375 C17.67 26.618125 17.34 27.29875 17 28 C16.34 28 15.68 28 15 28 C15.15726562 27.44054687 15.31453125 26.88109375 15.4765625 26.3046875 C16.72640816 20.80163571 17.01606241 15.78686837 14.1875 10.8125 C10.75754715 7.32272239 6.40222884 4.91441171 2.23046875 2.41796875 C1.49441406 1.95003906 0.75835937 1.48210938 0 1 C0 0.67 0 0.34 0 0 Z " fill="#202020" transform="translate(244,29)"/>
<path d="M0 0 C0.226875 0.515625 0.45375 1.03125 0.6875 1.5625 C1.8488524 3.71929732 3.09193924 5.49091957 4.5625 7.4375 C6.62561626 10.2530469 7.67760365 12.45364011 8 16 C9.65 15.34 11.3 14.68 13 14 C13.33 11.36 13.66 8.72 14 6 C15.9451 8.91765 16.45276317 10.62537285 17 14 C15.73308493 14.67408308 14.46129251 15.33900497 13.1875 16 C12.47980469 16.37125 11.77210938 16.7425 11.04296875 17.125 C9 18 9 18 6 18 C5.81824219 17.39671875 5.63648438 16.7934375 5.44921875 16.171875 C3.93430935 11.19116977 3.93430935 11.19116977 1.3125 6.75 C-0.42439048 4.43414602 -0.23511288 2.82135457 0 0 Z " fill="#3D3D3D" transform="translate(145,91)"/>
<path d="M0 0 C0 0.66 0 1.32 0 2 C4.62 2.66 9.24 3.32 14 4 C14 4.33 14 4.66 14 5 C9.71 5 5.42 5 1 5 C1 4.34 1 3.68 1 3 C-0.65 3 -2.3 3 -4 3 C-4 3.66 -4 4.32 -4 5 C-4.99 4.67 -5.98 4.34 -7 4 C-2.25 0 -2.25 0 0 0 Z " fill="#232323" transform="translate(50,263)"/>
<path d="M0 0 C1.32 0.33 2.64 0.66 4 1 C2.37660195 2.70884005 0.70680947 4.37446717 -1 6 C-1.66 6 -2.32 6 -3 6 C-3.33 6.99 -3.66 7.98 -4 9 C-4.33 8.34 -4.66 7.68 -5 7 C-4.67 6.01 -4.34 5.02 -4 4 C-3.34 4 -2.68 4 -2 4 C-1.34 2.68 -0.68 1.36 0 0 Z " fill="#646464" transform="translate(263,7)"/>
<path d="M0 0 C0.6171875 1.80859375 0.6171875 1.80859375 1 4 C-0.875 7.0625 -0.875 7.0625 -3 10 C-3.33 10.99 -3.66 11.98 -4 13 C-5.32 12.67 -6.64 12.34 -8 12 C-7.56042969 11.60167969 -7.12085938 11.20335937 -6.66796875 10.79296875 C-4.78810247 8.77222257 -3.61519799 6.74185572 -2.3125 4.3125 C-1.87550781 3.50425781 -1.43851562 2.69601563 -0.98828125 1.86328125 C-0.66214844 1.24839844 -0.33601563 0.63351563 0 0 Z " fill="#181818" transform="translate(267,18)"/>
<path d="M0 0 C1.11375 0.1546875 1.11375 0.1546875 2.25 0.3125 C2.58 0.9725 2.91 1.6325 3.25 2.3125 C1.6 2.3125 -0.05 2.3125 -1.75 2.3125 C-2.224375 3.26125 -2.69875 4.21 -3.1875 5.1875 C-4.04166667 6.89583333 -4.89583333 8.60416667 -5.75 10.3125 C-6.5 8.125 -6.5 8.125 -6.75 5.3125 C-4.81920464 1.97073879 -3.92517916 0.44604309 0 0 Z " fill="#212121" transform="translate(208.75,17.6875)"/>
<path d="M0 0 C2.4164124 0.48328248 4.65832183 1.21944061 7 2 C7 2.66 7 3.32 7 4 C4.03 3.505 4.03 3.505 1 3 C0.34 3.99 -0.32 4.98 -1 6 C-1.042721 4.33388095 -1.04063832 2.66617115 -1 1 C-0.67 0.67 -0.34 0.34 0 0 Z " fill="#1B1B1B" transform="translate(233,67)"/>
<path d="M0 0 C0.99 0.33 1.98 0.66 3 1 C1.6875 3 1.6875 3 0 5 C-0.99 5 -1.98 5 -3 5 C-3 4.01 -3 3.02 -3 2 C-2.01 1.34 -1.02 0.68 0 0 Z " fill="#919191" transform="translate(221,207)"/>
</svg>
